# xmcd
#
# Track frame offsets:
#	150
#	11247
#	25365
#	37292
#	52692
#	64535
#	78447
#	89497
#	106325
#	119535
#	134525
#	145415
#	159060
#	169332
#	181165
#	190887
#	202670
#	215022
#	228437
#	240032
#
# Disc length: 3378 seconds
#
# Revision: 3
# Processed by: cddbd v1.5.1PL2 Copyright (c) Steve Scherf et al.
# Submitted via: EasyCDDAExtractor 6.2.0.3
#
DISCID=0d0d3014
DTITLE=Conway Twitty - Golden Classics: 20 Classic Tracks
DYEAR=1900
DGENRE=Country
TTITLE0=Hello Darlin'
TTITLE1=You've Never Been This Far Before
TTITLE2=She Needs Someone To Hold Her (When She Cries)
TTITLE3=Touch The Hand 
TTITLE4=Linda On My Mind
TTITLE5=Fifteen Years Ago
TTITLE6=It's Only Make Believe
TTITLE7=Don't Cry Joni
TTITLE8=After All The Good Is Gone
TTITLE9=(Lost Her Love) On Our Last Date
TTITLE10=As Soon As I Hang Up The Phone
TTITLE11=Baby's Gone
TTITLE12=I Can't Believe She Gives It All To Me
TTITLE13=I Can't See Me Without You
TTITLE14=I'll Try
TTITLE15=I'm Not Through Loving You Yet
TTITLE16=This Time I've Hurt Her More Than She Loves Me
TTITLE17=The Games That Daddies Play
TTITLE18=To See My Angle Cry
TTITLE19=Danny Boy
EXTD=
EXTT0=
EXTT1=
EXTT2=
EXTT3=
EXTT4=
EXTT5=
EXTT6=
EXTT7=
EXTT8=
EXTT9=
EXTT10=
EXTT11=
EXTT12=
EXTT13=
EXTT14=
EXTT15=
EXTT16=
EXTT17=
EXTT18=
EXTT19=
PLAYORDER=
